<svg width="109" height="47" viewBox="0 0 109 47" fill="none" xmlns="http://www.w3.org/2000/svg">
<path d="M79.1113 17.3652L86.9282 19.3938L109 0L79.1113 17.3652Z" fill="#3FDDFE"/>
<path d="M90.7349 20.3815L99.5908 22.6799L109 0L90.7349 20.3815Z" fill="#3FDDFE"/>
<path d="M109 0L86.9282 19.3938L90.7349 25.85L94 21.229L90.7349 20.3815L109 0Z" fill="#4D7FFD"/>
<path d="M90.7349 20.3813V25.8499L93.9999 21.2288L90.7349 20.3813Z" fill="#240065"/>
<path d="M23.0381 38.2283V23.1926C23.0381 22.62 23.3943 22.2617 23.9288 22.2617H27.4915C28.026 22.2617 28.3822 22.6197 28.3822 23.1926V38.2283C28.3822 38.8009 28.026 39.1592 27.4915 39.1592H23.9288C23.3943 39.1592 23.0381 38.8013 23.0381 38.2283Z" fill="#240065"/>
<path d="M25.7102 20.3701C27.1859 20.3701 28.3822 19.1679 28.3822 17.685C28.3822 16.2021 27.1859 15 25.7102 15C24.2344 15 23.0381 16.2021 23.0381 17.685C23.0381 19.1679 24.2344 20.3701 25.7102 20.3701Z" fill="#3FDDFE"/>
<path d="M0 38.1731V15.0495C0 14.4799 0.356209 14.1001 0.890693 14.1001H11.5429C17.065 14.1001 19.8086 17.2897 19.8086 21.0486C19.8086 23.4027 18.6685 25.4532 16.139 26.4781C18.6685 27.3512 20.6993 29.6294 20.6993 32.1736C20.6993 35.9704 17.9918 39.16 12.4336 39.16H0.890693C0.356209 39.16 0 38.7802 0 38.1731ZM14.3933 21.6561C14.3933 20.517 13.7163 19.4158 11.7569 19.4158H5.52209V24.0485L11.6498 24.0861C13.4315 24.0861 14.3933 22.8331 14.3933 21.6561ZM12.0774 33.8443C14.5716 33.8443 15.1772 32.4013 15.1772 31.3384C15.1772 30.1234 14.2865 29.0602 12.7902 29.0602H5.52209V33.8443H12.0774Z" fill="#240065"/>
<path d="M30.7202 38.1931V36.6181C30.7202 36.2242 30.7559 35.9736 30.827 35.7945C31.8603 33.1098 34.746 29.3865 37.0619 27.0594H31.6824C31.1125 27.0594 30.7206 26.666 30.7206 26.093V23.2292C30.7206 22.6562 31.1125 22.2627 31.6824 22.2627H43.3682C43.9381 22.2627 44.33 22.6206 44.33 23.2292L44.2943 24.9474C44.2943 25.3768 44.2232 25.6995 43.9738 25.9501C41.4796 28.5278 38.024 32.5372 37.2405 34.6137H43.5465C44.1163 34.6137 44.5083 35.0072 44.5083 35.5802V38.1934C44.5083 38.766 44.1163 39.1599 43.5465 39.1599H31.6116C31.0407 39.1599 30.7202 38.7657 30.7202 38.1931Z" fill="#240065"/>
<path d="M46.8467 38.2305V24.0382C46.8467 19.3191 48.5542 14.1001 55.1004 14.1001C55.5274 14.1001 55.9183 14.4932 55.9897 14.8505L56.4521 17.4959C56.5589 18.1037 56.3453 18.5683 55.7053 18.6757C53.0016 19.1047 51.8986 20.4629 51.8986 23.2157H56.1677C56.7015 23.2157 57.0927 23.5733 57.0927 24.1093V27.0049C57.0927 27.5413 56.7011 27.8986 56.1677 27.8986H52.0765V38.2302C52.0765 38.8021 51.7207 39.1593 51.1872 39.1593H47.7364C47.2026 39.16 46.8467 38.8024 46.8467 38.2305Z" fill="#240065"/>
<path d="M59.4316 38.2295V14.9951C59.4316 14.458 59.7878 14.1001 60.3223 14.1001H63.7779C64.3124 14.1001 64.6686 14.458 64.6686 14.9951V38.2291C64.6686 38.8018 64.3124 39.1597 63.7779 39.1597H60.3223C59.7878 39.16 59.4316 38.8018 59.4316 38.2295Z" fill="#240065"/>
<path d="M70.1071 45.6391C69.6437 45.46 69.5369 44.9951 69.7508 44.5294L70.748 42.1668C70.9263 41.6297 71.4605 41.4509 71.9949 41.7012C73.2772 42.2741 74.0968 42.4533 74.9875 42.4533C77.9801 42.4533 79.2984 40.52 78.9065 37.6199C78.0158 38.6941 76.4481 39.5176 74.4534 39.5176C70.748 39.5176 67.0073 37.0473 67.0073 30.9255V23.1928C67.0073 22.6201 67.3635 22.2622 67.898 22.2622H71.4251C71.9592 22.2622 72.3154 22.6201 72.3154 23.1928V31.1043C72.3154 33.5746 73.3844 34.9711 75.4509 34.9711C76.9825 34.9711 78.4077 34.219 78.9776 32.5726V23.1928C78.9776 22.6201 79.3338 22.2622 79.904 22.2622H83.2885C83.823 22.2622 84.1792 22.6201 84.1792 23.1928V37.6199C84.1792 44.6368 80.8301 46.9998 75.7356 46.9998C73.3844 46.9998 71.7459 46.57 70.1071 45.6391Z" fill="#240065"/>
</svg>
